# xmcd
#
# Track frame offsets:
#	150
#	14067
#	29417
#	48043
#	68824
#	87837
#	105373
#	122672
#	139657
#	154310
#	170488
#	193926
#	211509
#	225825
#	245742
#	268176
#
# Disc length: 3581 seconds
#
# Revision: 1
# Processed by: cddbd v1.5.2PL0 Copyright (c) Steve Scherf et al.
# Submitted via: audiograbber 1.83.01
#
DISCID=d50dfb10
DTITLE=All Star Karaoke - Guy Country Vol 2 Disc 2
DYEAR=1900
DGENRE=Country
TTITLE0=Brooks and Dunn - My Heart Is Lost To You
TTITLE1=Keith, Toby - My List
TTITLE2=Lonestar - Not A Day Goes By
TTITLE3=Chesney, Kenny - She Thinks My Tractor's Sexy
TTITLE4=Tritt, Travis - Best Of Intentions, The
TTITLE5=Brooks and Dunn - Long Goodbye, The
TTITLE6=Allan, Gary - One, The
TTITLE7=Chesney, Kenny - Tin Man, The
TTITLE8=Jackson, Alan - Three Minute Up Tempo Love Song
TTITLE9=Steiner, Tommy - What If She's An Angel
TTITLE10=Jackson, Alan - Where Were You (When The Wold Stop Turning)
TTITLE11=Lonestar - With Me
TTITLE12=Paisley, Brad - Wrapped Around
TTITLE13=Brooks, Garth - Wrapped Up In You
TTITLE14=Keith, Toby - You Ain't Much Fun
TTITLE15=Data - Data Track
EXTD=
EXTT0=
EXTT1=
EXTT2=
EXTT3=
EXTT4=
EXTT5=
EXTT6=
EXTT7=
EXTT8=
EXTT9=
EXTT10=
EXTT11=
EXTT12=
EXTT13=
EXTT14=
EXTT15=
PLAYORDER=
